<svg width="24" height="24" viewBox="0 0 24 24" fill="none" xmlns="http://www.w3.org/2000/svg">
<path d="M21 4C19.89 3.65 18.67 3.5 17.5 3.5C15.55 3.5 13.45 3.9 12 5C10.55 3.9 8.45 3.5 6.5 3.5C4.55 3.5 2.45 3.9 1 5V19.65C1 19.9 1.25 20.15 1.5 20.15C1.6 20.15 1.65 20.1 1.75 20.1C3.1 19.45 5.05 19 6.5 19C8.45 19 10.55 19.4 12 20.5C13.35 19.65 15.8 19 17.5 19C19.15 19 20.85 19.3 22.25 20.05C22.35 20.1 22.4 20.1 22.5 20.1C22.75 20.1 23 19.85 23 19.6V5C22.4 4.55 21.75 4.25 21 4ZM21 17.5C19.9 17.15 18.7 17 17.5 17C15.8 17 13.35 17.65 12 18.5V7C13.35 6.15 15.8 5.5 17.5 5.5C18.7 5.5 19.9 5.65 21 6V17.5Z" fill="#6D6D6D"/>
<path d="M17.5 9.5C18.38 9.5 19.23 9.59 20 9.76V8.24C19.21 8.09 18.36 8 17.5 8C15.8 8 14.26 8.29 13 8.83V10.49C14.13 9.85 15.7 9.5 17.5 9.5Z" fill="#6D6D6D"/>
<path d="M13 11.4899V13.1499C14.13 12.5099 15.7 12.1599 17.5 12.1599C18.38 12.1599 19.23 12.2499 20 12.4199V10.8999C19.21 10.7499 18.36 10.6599 17.5 10.6599C15.8 10.6599 14.26 10.9599 13 11.4899Z" fill="#6D6D6D"/>
<path d="M17.5 13.3301C15.8 13.3301 14.26 13.6201 13 14.1601V15.8201C14.13 15.1801 15.7 14.8301 17.5 14.8301C18.38 14.8301 19.23 14.9201 20 15.0901V13.5701C19.21 13.4101 18.36 13.3301 17.5 13.3301Z" fill="#6D6D6D"/>
</svg>
